<svg xmlns="http://www.w3.org/2000/svg" xmlns:xlink="http://www.w3.org/1999/xlink"><defs>
<clipPath id="clip0_16033_302">
<rect width="32" height="32" fill="white"/>
</clipPath>
</defs><symbol id="crown" viewBox="0 0 24 24">
<path fill-rule="evenodd" clip-rule="evenodd" d="M12 9.69323L2.35682 15.6732L2 15.6851L5.06273 6L7.13652 6.28725L5.33903 11.683L11.8777 7.80528H12H12.1222L14.1553 9.01098L13.4422 10.5532L12 9.69323ZM12.0647 19.0001L11.8495 18.9998L8.5883 12.3488L10.3397 11.3069L11.9804 14.7888L13.9235 10.8434L13.9222 10.8425L14.6544 9.30707L18.661 11.683L16.8635 6.28725L18.9374 6L22 15.6851L21.6433 15.6732L15.6381 11.916L12.0647 19.0001Z"/>
</symbol><symbol id="phone" viewBox="0 0 32 32">
<g clip-path="url(#clip0_16033_302)">
<path d="M26.68 20.5067C25.04 20.5067 23.4533 20.24 21.9733 19.76C21.5067 19.6 20.9867 19.72 20.6267 20.08L18.5333 22.7067C14.76 20.9067 11.2267 17.5067 9.34667 13.6L11.9467 11.3867C12.3067 11.0133 12.4133 10.4933 12.2667 10.0267C11.7733 8.54667 11.52 6.96 11.52 5.32C11.52 4.6 10.92 4 10.2 4H5.58667C4.86667 4 4 4.32 4 5.32C4 17.7067 14.3067 28 26.68 28C27.6267 28 28 27.16 28 26.4267V21.8267C28 21.1067 27.4 20.5067 26.68 20.5067Z"/>
</g>

</symbol></svg>